<svg width="32" height="32" viewBox="0 0 32 32" fill="none" xmlns="http://www.w3.org/2000/svg">
<path fill-rule="evenodd" clip-rule="evenodd" d="M4.2663 22.4433L2.36353 29.3908L9.47325 27.5264C11.4323 28.5948 13.6378 29.1578 15.8822 29.1587H15.8879C23.2795 29.1587 29.2965 23.1434 29.2998 15.7513C29.3011 12.1686 27.907 8.80009 25.3752 6.26582C22.8427 3.73155 19.4755 2.33541 15.8879 2.33366C8.49512 2.33366 2.47907 8.34795 2.47606 15.7405C2.47531 18.1035 3.09274 20.4102 4.2663 22.4433ZM4.74056 15.7412C4.74282 9.59708 9.74333 4.59839 15.8922 4.59839C18.8699 4.59965 21.6684 5.76012 23.7731 7.86637C25.8779 9.97261 27.0362 12.7726 27.0351 15.7503C27.0326 21.8949 22.0321 26.8941 15.8879 26.8941H15.8837C13.8829 26.8931 11.9211 26.3561 10.21 25.3406L9.8026 25.0991L5.58353 26.2054L6.70993 22.0934L6.44468 21.6719C5.32888 19.8974 4.73965 17.8467 4.74056 15.7412Z" fill="black"/>
<path fill-rule="evenodd" clip-rule="evenodd" d="M12.536 10.1354C12.2849 9.57752 12.0206 9.56622 11.782 9.55642C11.5865 9.54813 11.363 9.54864 11.1397 9.54864C10.9161 9.54864 10.5531 9.63253 10.2462 9.96787C9.93898 10.3032 9.07312 11.1138 9.07312 12.7626C9.07312 14.4115 10.2741 16.0045 10.4414 16.2283C10.6089 16.4519 12.7596 19.9435 16.166 21.2866C18.9967 22.4029 19.5727 22.1808 20.1873 22.1251C20.8018 22.0693 22.17 21.3145 22.4491 20.532C22.7284 19.7495 22.7284 19.0791 22.6447 18.9389C22.5608 18.799 22.3375 18.7154 22.0022 18.5478C21.6671 18.3803 20.0195 17.5694 19.7123 17.4577C19.4051 17.3459 19.1818 17.2901 18.9583 17.6255C18.735 17.9608 18.0932 18.7154 17.8975 18.9389C17.7021 19.1628 17.5066 19.1906 17.1713 19.0231C16.8362 18.855 15.7568 18.5016 14.4765 17.3599C13.4803 16.4717 12.8078 15.3748 12.6122 15.0394C12.4167 14.7041 12.5913 14.5227 12.7594 14.3557C12.9098 14.2055 13.0944 13.9643 13.2622 13.7687C13.4293 13.573 13.4853 13.4333 13.5968 13.21C13.7086 12.9862 13.6528 12.7905 13.5689 12.623C13.4853 12.4554 12.834 10.7981 12.536 10.1354Z" fill="black"/>
</svg>
